<svg width="150" height="46" viewBox="0 0 150 46" fill="none" xmlns="http://www.w3.org/2000/svg">
<path d="M79.0482 11.5283C79.0482 13.1859 77.6697 14.5422 75.985 14.5422C74.3002 14.5422 72.9218 13.1859 72.9218 11.5283C72.9218 9.8706 74.2236 8.51433 75.985 8.51433C77.7463 8.55201 79.0482 9.90827 79.0482 11.5283ZM66.489 17.5561C66.489 17.8198 66.489 18.3096 66.489 18.3096C66.489 18.3096 65.034 16.4636 61.9325 16.4636C56.8399 16.4636 52.8195 20.3063 52.8195 25.5807C52.8195 30.855 56.7633 34.6978 61.9325 34.6978C65.0723 34.6978 66.489 32.8141 66.489 32.8141V33.6052C66.489 33.982 66.757 34.2457 67.14 34.2457H70.9307V16.9156C70.9307 16.9156 67.4463 16.9156 67.14 16.9156C66.757 16.9156 66.489 17.2547 66.489 17.5561ZM66.489 28.6699C65.7998 29.6871 64.3831 30.5536 62.6983 30.5536C59.7117 30.5536 57.4143 28.7076 57.4143 25.5807C57.4143 22.4537 59.7117 20.6077 62.6983 20.6077C64.3448 20.6077 65.8381 21.5119 66.489 22.4914V28.6699ZM73.7641 16.9156H78.2824V34.2457H73.7641V16.9156ZM140.963 16.4636C137.862 16.4636 136.407 18.3096 136.407 18.3096V8.58968H131.889V34.2834C131.889 34.2834 135.373 34.2834 135.679 34.2834C136.062 34.2834 136.33 33.9443 136.33 33.6429V32.8518C136.33 32.8518 137.785 34.7355 140.887 34.7355C145.979 34.7355 150 30.855 150 25.6183C150.038 20.344 146.018 16.4636 140.963 16.4636ZM140.236 30.516C138.513 30.516 137.134 29.6495 136.445 28.6323V22.4537C137.134 21.5496 138.666 20.57 140.236 20.57C143.222 20.57 145.52 22.4161 145.52 25.543C145.52 28.6699 143.222 30.516 140.236 30.516ZM129.591 23.9607V34.2834H125.073V24.4881C125.073 21.6249 124.154 20.457 121.588 20.457C120.21 20.457 118.832 21.1351 117.951 22.1523V34.2457H113.433V16.9156H116.994C117.377 16.9156 117.645 17.2547 117.645 17.5561V18.3096C118.946 16.9533 120.708 16.4636 122.431 16.4636C124.384 16.4636 126.03 17.0287 127.37 18.1212C128.978 19.4021 129.591 21.0598 129.591 23.9607ZM102.52 16.4636C99.4185 16.4636 97.9635 18.3096 97.9635 18.3096V8.58968H93.4453V34.2834C93.4453 34.2834 96.9297 34.2834 97.236 34.2834C97.6189 34.2834 97.8869 33.9443 97.8869 33.6429V32.8518C97.8869 32.8518 99.3419 34.7355 102.443 34.7355C107.536 34.7355 111.556 30.855 111.556 25.6183C111.633 20.344 107.651 16.4636 102.52 16.4636ZM101.792 30.516C100.069 30.516 98.691 29.6495 98.0018 28.6323V22.4537C98.691 21.5496 100.223 20.57 101.792 20.57C104.779 20.57 107.077 22.4161 107.077 25.543C107.077 28.6699 104.779 30.516 101.792 30.516ZM89.578 16.4636C90.9564 16.4636 91.6456 16.6896 91.6456 16.6896V20.7961C91.6456 20.7961 87.8932 19.5528 85.5575 22.19V34.321H81.0393V16.9156C81.0393 16.9156 84.5237 16.9156 84.83 16.9156C85.2129 16.9156 85.4809 17.2547 85.4809 17.5561V18.3096C86.3616 17.3301 88.1995 16.4636 89.578 16.4636ZM42.864 32.7011C42.6343 32.136 42.4045 31.5332 42.1748 31.0434C41.7919 30.2146 41.409 29.4234 41.1027 28.7076L41.0644 28.6699C37.848 21.7379 34.3636 14.7305 30.6878 7.8362L30.5346 7.57248C30.1517 6.89435 29.7688 6.14087 29.4242 5.38739C28.9647 4.55856 28.5052 3.69205 27.7394 2.86323C26.2461 1.0172 24.1019 0 21.8045 0C19.4688 0 17.3628 1.0172 15.7929 2.75021C15.1037 3.57903 14.5676 4.44554 14.1082 5.27436C13.7253 6.02785 13.3424 6.74365 12.9977 7.45946L12.8446 7.72318C9.24532 14.6552 5.72263 21.6626 2.46797 28.5569L2.42968 28.6323C2.08507 29.3857 1.74046 30.1392 1.35756 30.9681C1.12782 31.4578 0.898077 32.0229 0.668336 32.6257C0.0556947 34.321 -0.135756 35.941 0.0939848 37.5987C0.591756 41.0647 2.96574 43.9656 6.18211 45.2465C7.40739 45.7363 8.67097 46 9.97283 46C10.3557 46 10.8152 45.9623 11.1981 45.9246C12.7297 45.7363 14.3379 45.2465 15.8695 44.3423C17.784 43.2875 19.6219 41.7428 21.6896 39.5577C23.7573 41.7805 25.6335 43.2875 27.5097 44.3423C29.0413 45.2088 30.6495 45.7363 32.1811 45.9246C32.564 45.9623 33.0235 46 33.4064 46C34.7082 46 36.0484 45.774 37.1971 45.2465C40.49 43.9656 42.7874 40.9894 43.2852 37.5987C43.6681 36.0164 43.4767 34.3964 42.864 32.7011ZM21.7279 35.0745C19.2007 31.9476 17.5543 28.9713 16.9799 26.4848C16.7502 25.43 16.7119 24.4881 16.8268 23.6593C16.9033 22.9058 17.2097 22.2654 17.5926 21.7379C18.4732 20.4947 19.9665 19.7035 21.7279 19.7035C23.4892 19.7035 25.0208 20.457 25.8632 21.7379C26.2461 22.303 26.5142 22.9435 26.629 23.6593C26.7822 24.4881 26.7056 25.4676 26.4759 26.4848C25.9015 28.9713 24.255 31.9099 21.7279 35.0745ZM40.4135 37.2596C40.0688 39.6708 38.4607 41.7428 36.1633 42.647C35.0528 43.0991 33.8276 43.2498 32.6023 43.0991C31.4153 42.9484 30.2666 42.6093 29.0413 41.8935C27.3565 40.9893 25.6718 39.5577 23.6807 37.4103C26.7822 33.6806 28.6584 30.2523 29.3476 27.2007C29.6922 25.769 29.7305 24.4881 29.5774 23.2826C29.3859 22.1147 28.9647 21.0598 28.3138 20.1556C26.8588 18.0835 24.4082 16.878 21.6896 16.878C18.971 16.878 16.5204 18.1212 15.0654 20.1556C14.4145 21.0598 13.9933 22.1523 13.8018 23.2826C13.6104 24.4881 13.6487 25.8067 14.0316 27.2007C14.7208 30.2523 16.6736 33.7183 19.6985 37.448C17.784 39.5577 16.061 40.9894 14.3379 41.9312C13.1126 42.6093 11.9639 42.9861 10.7769 43.1368C9.51335 43.2875 8.28807 43.0991 7.21594 42.6847C4.91854 41.7805 3.27206 39.6708 2.96574 37.2973C2.81258 36.1294 2.92745 34.9992 3.38693 33.7183C3.54009 33.2662 3.76983 32.8141 3.99958 32.249C4.34419 31.4955 4.6888 30.742 5.0717 29.9509L5.10999 29.8755C8.32636 23.0188 11.8108 15.9738 15.41 9.15479L15.5632 8.89107C15.9461 8.21294 16.329 7.45946 16.6736 6.78133C17.0565 6.02785 17.4777 5.34971 17.9755 4.74693C18.971 3.65438 20.2729 3.0516 21.7279 3.0516C23.1829 3.0516 24.4848 3.65438 25.4803 4.74693C25.9781 5.34971 26.3993 6.02785 26.7822 6.78133C27.1651 7.45946 27.548 8.21294 27.8926 8.89107L28.0458 9.15479C31.6067 16.0115 35.0911 23.0565 38.3075 29.9132V29.9509C38.6904 30.7043 38.9967 31.5332 39.3796 32.249C39.6094 32.8141 39.8391 33.2662 39.9923 33.7183C40.4517 34.8862 40.6049 36.0541 40.4135 37.2596Z" fill="#C6C6C6"/>
</svg>
