<svg width="174" height="120" viewBox="0 0 174 120" fill="none" xmlns="http://www.w3.org/2000/svg">
<path d="M39.8246 72.266C33.3136 72.266 28.0369 66.9865 28.0369 60.4743C28.0369 53.9617 33.3136 48.6872 39.8246 48.6872C42.1195 48.6872 44.2621 49.3417 46.0721 50.4762L39.8246 60.4743L51.5862 53.683C50.3084 51.647 48.4756 49.8926 46.2595 48.5614C43.4394 46.873 39.5165 45.8281 35.1787 45.8281C28.9911 45.8281 23.5626 48.0767 20.5352 51.4439C18.2939 53.9331 16.9595 57.066 16.9595 60.4741C16.9595 63.8846 18.2939 67.0198 20.5352 69.5107C23.5704 72.8822 28.9181 75.1176 35.0037 75.1176C41.0885 75.1176 46.4345 72.8805 49.4716 69.5107C49.6379 69.3252 49.799 69.1379 49.9513 68.9436L49.4926 67.2246C47.3588 70.2704 43.8245 72.266 39.8246 72.266Z" fill="#C6C6C6"/>
<path d="M78.819 74.4085L73.8826 55.9932C73.0896 53.0173 70.3798 50.8301 67.1536 50.8301C66.3169 50.8301 65.5151 50.9796 64.7712 51.2502L54.1439 55.1146H65.074L66.9418 62.09C65.13 60.5307 62.7704 59.5819 60.1866 59.5819C55.0559 59.5819 50.9019 63.0201 50.9019 67.2612C50.9019 71.5027 55.0559 74.9459 60.1866 74.9459C63.8802 74.9459 67.1466 73.1377 69.1614 70.3596L70.245 74.4085H78.819ZM63.7611 71.5482C61.3945 71.5482 59.4759 69.6314 59.4759 67.2612C59.4759 64.8945 61.3945 62.976 63.7611 62.976C66.1278 62.976 68.0481 64.8945 68.0481 67.2612C68.0481 69.6314 66.1278 71.5482 63.7611 71.5482Z" fill="#C6C6C6"/>
<path d="M98.9464 50.833C98.2987 50.833 97.686 50.9762 97.1398 51.2326L90.3164 54.4126C89.9785 52.3813 88.214 50.833 86.0854 50.833C85.4412 50.833 84.8268 50.9762 84.2736 51.2326L75.943 55.1144H81.8002V74.4085H90.3741V57.2609C90.3741 56.0777 91.3317 55.1146 92.5185 55.1146C93.6984 55.1146 94.6629 56.0777 94.6629 57.2609V74.4085H103.233V55.1144C103.233 52.7482 101.313 50.8332 98.9464 50.8332" fill="#C6C6C6"/>
<path d="M152.715 50.833C152.065 50.833 151.449 50.9762 150.894 51.2326L144.078 54.4126C143.742 52.3813 141.977 50.833 139.849 50.833C139.204 50.833 138.59 50.9762 138.035 51.2326L129.708 55.1144H135.563V74.4085H144.136V57.2609C144.136 56.0777 145.095 55.1146 146.282 55.1146C147.465 55.1146 148.423 56.0777 148.423 57.2609V74.4085H157V55.1144C157 52.7482 155.078 50.8332 152.715 50.8332" fill="#C6C6C6"/>
<path d="M131.094 62.9756C131.094 69.6819 125.659 75.1173 118.955 75.1173C112.245 75.1173 106.806 69.6819 106.806 62.9756C106.806 56.271 112.245 50.833 118.955 50.833C125.659 50.833 131.094 56.2711 131.094 62.9756ZM119.457 54.5182C119.075 53.0894 117.607 52.2413 116.178 52.6254C114.752 53.0078 113.899 54.4774 114.283 55.906L118.447 71.4324C118.832 72.8626 120.297 73.7099 121.726 73.3317C123.154 72.9449 124.003 71.4762 123.62 70.0478L119.457 54.5182Z" fill="#C6C6C6"/>
</svg>
