<svg width="88" height="88" viewBox="0 0 88 88" fill="none" xmlns="http://www.w3.org/2000/svg">
<path d="M42.7755 0.291016H45.4951C58.7234 1.03655 68.1552 6.05678 75.1477 13.0924C82.1404 20.1281 87.3093 29.4075 88 42.6845V45.3149C87.3284 58.8042 82.0681 67.7071 75.1477 74.9509C67.8779 81.8315 58.9411 87.0447 45.4512 87.708H42.7755C29.5489 86.961 20.1154 81.9428 13.1229 74.9068C6.13038 67.8711 0.961321 58.5919 0.270599 45.3149V42.6845C0.305022 42.6749 0.321855 42.6479 0.314479 42.5968C0.975884 29.3705 6.17313 19.9946 13.1231 13.0486C20.105 6.0702 29.6346 1.01405 42.7755 0.291016ZM34.178 6.56016C31.5717 7.25768 29.2344 8.14347 27.1159 9.1905C20.6675 12.3773 15.3498 16.9367 11.6316 22.7809C8.00244 28.4854 4.86015 35.8237 5.31521 45.4463C5.60213 51.5128 6.98717 56.6158 9.17508 60.9657C13.4959 69.5546 20.074 75.8831 29.1776 79.7295C33.6794 81.6315 39.2576 82.9657 45.5392 82.6666C51.5644 82.3799 56.7855 81.0262 61.1112 78.8526C69.589 74.5923 76.2702 68.019 79.9733 58.9492C81.8461 54.3612 83.2623 49.0611 82.9561 42.6405C82.3766 30.4778 77.4264 22.2309 70.8935 15.9419C67.661 12.8301 63.7686 10.1831 59.1817 8.26993C54.7311 6.41366 48.9373 5.03734 42.7322 5.33261C39.6816 5.47778 36.8039 5.85735 34.178 6.56016Z" fill="#C6C6C6"/>
<path d="M40.0999 32.645C41.4897 33.5648 42.9113 34.4531 44.2233 35.4508C41.2593 37.3108 38.3537 39.2293 35.4066 41.1061C35.8541 41.4481 36.3628 41.7286 36.8101 42.0706C39.7818 40.189 42.7545 38.3085 45.7148 36.4152C47.0425 37.2365 48.3496 38.0783 49.5751 39.0019C46.6087 40.8744 43.7417 42.846 40.802 44.7448C41.2376 45.0988 41.7715 45.3542 42.2493 45.6655C45.2877 43.8068 48.2505 41.8725 51.2415 39.9665V33.741H57.8213V46.1479C59.6781 46.25 61.7255 46.1625 63.6556 46.1914V52.0224H51.2415V46.1037C47.5942 48.3183 43.8566 50.8228 40.1877 53.162C36.367 50.6825 32.6847 48.0639 28.8706 45.5778C27.7657 49.0781 25.1414 51.7112 20.7993 52.0224C18.0912 52.2159 15.014 51.8778 11.8948 52.0224V33.741C15.7944 33.9992 20.0764 33.2199 23.168 34.1794C25.9016 35.0279 27.8396 37.2078 28.7388 39.9224C32.5557 37.5265 36.3114 35.0697 40.0999 32.645ZM18.1673 39.6156V46.1916C19.7346 46.1993 20.9268 46.2903 21.8518 45.578C23.2281 44.5185 23.5054 41.8919 22.2904 40.4924C21.4796 39.5586 20.1106 39.3625 18.211 39.4841C18.1603 39.4915 18.1635 39.5535 18.1673 39.6156ZM65.3659 33.741H71.9456V46.1916H77.7358V52.0226H65.3217V33.8726C65.3183 33.8104 65.3147 33.7484 65.3659 33.741Z" fill="#C6C6C6"/>
</svg>
