<svg width="174" height="120" viewBox="0 0 174 120" fill="none" xmlns="http://www.w3.org/2000/svg">
<path d="M87.9716 27.5628L76.3384 35.0798L87.9716 42.5967L76.3384 50.1136L64.7052 42.534L76.3384 35.0171L64.7052 27.5628L76.3384 20.0459L87.9716 27.5628ZM76.2765 52.494L87.9097 44.9771L99.5429 52.494L87.9097 60.0109L76.2765 52.494ZM87.9716 42.534L99.6048 35.0171L87.9716 27.5628L99.5429 20.0459L111.176 27.5628L99.5429 35.0798L111.176 42.5967L99.5429 50.1136L87.9716 42.534Z" fill="#C6C6C6"/>
<path d="M21.9751 71.7307H30.4788C35.9056 71.7307 40.3812 74.8637 40.3812 82.0247V83.5352C40.3812 90.7522 36.1853 93.9971 30.6467 93.9971H21.9751V71.7307ZM26.7305 75.7588V89.9131H30.367C33.444 89.9131 35.514 87.899 35.514 83.4234V82.2485C35.514 77.7728 33.3321 75.7588 30.1991 75.7588H26.7305ZM42.8988 75.9826H46.7031L47.3185 80.1785C48.0458 77.3253 49.892 75.8147 53.2488 75.8147H54.4236V80.6261H52.4655C48.6053 80.6261 47.6542 81.9688 47.6542 85.7731V94.053H42.9547V75.9826H42.8988ZM55.3747 85.3815V84.8779C55.3747 78.8358 59.235 75.535 64.4939 75.535C69.8646 75.535 73.613 78.8358 73.613 84.8779V85.3815C73.613 91.3117 69.9765 94.5006 64.4939 94.5006C58.6755 94.4447 55.3747 91.3117 55.3747 85.3815ZM68.8017 85.3255V84.8779C68.8017 81.5212 67.1233 79.5071 64.4379 79.5071C61.8085 79.5071 60.0741 81.3534 60.0741 84.8779V85.3255C60.0741 88.5704 61.7525 90.4166 64.4379 90.4166C67.1233 90.3606 68.8017 88.5704 68.8017 85.3255ZM76.0746 75.9826H79.9908L80.4384 79.3953C81.3895 77.1015 83.4035 75.535 86.3686 75.535C90.9562 75.535 93.9773 78.8358 93.9773 84.9339V85.4374C93.9773 91.3676 90.6205 94.5006 86.3686 94.5006C83.5154 94.5006 81.5573 93.2139 80.6062 91.1439V100.263H76.0187L76.0746 75.9826ZM89.2219 85.3255V84.9339C89.2219 81.3534 87.3757 79.5631 84.9141 79.5631C82.2846 79.5631 80.5503 81.5771 80.5503 84.9339V85.2696C80.5503 88.4585 82.2287 90.4725 84.8581 90.4725C87.5435 90.4166 89.2219 88.6823 89.2219 85.3255ZM100.915 90.6963L100.523 93.9971H96.4948V69.9404H101.082V79.1715C102.089 76.8218 104.103 75.535 106.957 75.535C111.264 75.5909 114.453 78.5561 114.453 84.5423V85.1017C114.453 91.0879 111.432 94.5006 106.845 94.5006C103.824 94.4447 101.866 93.046 100.915 90.6963ZM109.642 85.1017V84.6542C109.642 81.3534 107.852 79.5071 105.334 79.5071C102.761 79.5071 100.97 81.5771 100.97 84.7101V85.1017C100.97 88.4585 102.705 90.4166 105.278 90.4166C108.02 90.4166 109.642 88.6823 109.642 85.1017ZM116.467 85.3815V84.8779C116.467 78.8358 120.328 75.535 125.587 75.535C130.957 75.535 134.706 78.8358 134.706 84.8779V85.3815C134.706 91.3117 131.013 94.5006 125.587 94.5006C119.768 94.4447 116.467 91.3117 116.467 85.3815ZM129.95 85.3255V84.8779C129.95 81.5212 128.272 79.5071 125.587 79.5071C122.957 79.5071 121.223 81.3534 121.223 84.8779V85.3255C121.223 88.5704 122.901 90.4166 125.587 90.4166C128.272 90.3606 129.95 88.5704 129.95 85.3255ZM140.86 84.6542L134.538 75.9826H139.965L143.601 81.4093L147.294 75.9826H152.664L146.231 84.5982L153 93.9971H147.685L143.545 88.0109L139.517 93.9971H133.978L140.86 84.6542Z" fill="#C6C6C6"/>
</svg>
