<svg width="173" height="120" viewBox="0 0 173 120" fill="none" xmlns="http://www.w3.org/2000/svg">
<path d="M106.485 28.0413C110.214 26.2099 112.062 26.4503 112.103 28.3066C112.153 30.718 111.797 33.9248 111.54 36.2452C110.156 48.8566 107.844 59.1619 107.67 72.1105C113.76 56.3427 118.865 45.3837 125.444 31.8864C127.533 27.5856 128.867 28.3894 130.582 27.627C137.261 24.6522 137.51 26.4752 136.64 30.1131C133.4 43.5872 125.105 86.0113 123.837 92.5438C123.472 94.4339 121.417 93.6326 120.887 92.8935C118.509 89.6037 115.824 89.5523 116.122 87.3646C117.614 76.4734 122.983 49.1475 124.384 42.7087C117.249 57.3363 109.849 75.6224 106.045 85.9907C105.242 88.1924 103.775 88.0309 102.863 86.42C101.579 84.157 99.0847 83.0017 98.6702 80.3276C97.3693 71.8256 100.162 55.6202 100.551 45.3679C96.665 56.5673 90.1434 78.3106 87.2844 88.1343C86.1078 92.199 82.1798 91.5359 83.2239 87.5743C87.566 71.0879 96.9218 41.9298 100.966 31.4472C101.919 28.9776 104.413 29.0605 106.485 28.0413Z" fill="#C6C6C6"/>
<path d="M82.8017 26.0195C81.5422 25.713 77.8878 27.6852 75.642 28.0746C74.9294 28.1989 74.2498 28.9529 74.0095 29.4917C70.413 37.7535 67.1896 45.6291 64.397 52.8036C60.8254 53.4135 56.6491 54.2165 51.9754 55.2663C55.3231 46.6789 58.7042 38.2091 62.0022 30.0633C63.6263 26.0525 59.3505 25.6714 57.6931 29.7319C55.5385 35.0106 51.5029 44.9007 47.0364 56.4282C43.7548 57.2328 40.2745 58.1525 36.6366 59.2034C33.9931 59.9666 33.8855 60.6709 35.0291 62.2562C35.6588 63.1389 36.9599 63.0499 37.5564 63.6789C39.0978 65.309 40.0342 67.2588 42.7935 67.5538C40.3323 74.1375 37.8712 80.9268 35.6422 87.4641C34.2417 91.5676 38.2276 92.407 39.7607 88.0647C42.2301 81.065 44.8321 73.9807 47.5087 66.9173C49.7378 66.3993 55.1323 65.2374 60.1126 64.1569C56.1599 74.9908 53.5577 83.2186 52.5718 87.2236C52.3895 87.9942 52.696 88.4218 52.8618 88.7359C54.1959 90.6774 55.4638 90.757 57.1791 93.1576C57.6433 93.8122 59.2012 94.1652 59.7314 92.5535C63.3941 81.4899 67.1646 71.1093 70.6781 61.8033C72.1364 61.4843 74.7633 60.8504 76.3709 58.4514C79.2297 54.1936 80.0501 55.0572 80.7381 53.7628C81.5999 52.1378 81.028 50.6122 77.9786 50.9891C77.9786 50.9891 76.8268 51.0711 74.6971 51.3139C78.078 42.6089 81.0363 35.2254 83.166 29.5989C83.8955 27.6935 83.9867 26.3013 82.8017 26.0195Z" fill="#C6C6C6"/>
<path d="M77.8133 82.4803C78.6006 84.4699 81.0617 83.8674 80.1253 81.466C79.1722 79.0197 76.8023 71.6553 76.1807 69.2828C75.3355 66.0859 78.9982 66.9602 77.142 69.0502C75.5511 70.8474 74.4902 71.5675 71.5485 74.985C68.7062 78.2839 69.4769 82.5649 72.5181 83.5104C75.9487 84.5776 78.9735 80.7973 80.8462 78.0239C82.6609 75.3382 80.9041 73.7629 79.0728 75.3506C77.896 76.3715 76.537 77.9392 75.1614 78.7845C74.0427 79.4648 73.1643 78.734 74.656 76.6806C76.3879 74.3032 78.3269 72.3112 79.7688 70.0645C82.7106 65.4862 76.8933 62.847 74.3907 65.8209C73.0482 67.4062 73.388 68.9625 73.7527 70.2982C74.3411 72.4378 76.5288 79.2677 77.8133 82.4803Z" fill="#C6C6C6"/>
</svg>
