<svg width="173" height="120" viewBox="0 0 173 120" fill="none" xmlns="http://www.w3.org/2000/svg">
<path d="M152 83.5072V80.3188H148.04V75.3618L147.907 75.4028L144.188 76.5406L144.115 76.5629V80.3188H138.245V78.2267C138.245 77.2524 138.463 76.5068 138.892 76.0096C139.319 75.5183 139.929 75.2686 140.706 75.2686C141.265 75.2686 141.844 75.4004 142.427 75.6601L142.573 75.7253V72.3673L142.504 72.3421C141.961 72.1468 141.221 72.0483 140.305 72.0483C139.15 72.0483 138.101 72.2996 137.186 72.7977C136.27 73.2964 135.55 74.0085 135.045 74.9139C134.542 75.8182 134.287 76.8626 134.287 78.0184V80.3188H131.53V83.5072H134.287V96.9396H138.245V83.5072H144.115V92.0434C144.115 95.5589 145.773 97.3406 149.043 97.3406C149.581 97.3406 150.146 97.2774 150.724 97.154C151.312 97.0275 151.712 96.901 151.948 96.766L152 96.7353V93.5172L151.839 93.6238C151.624 93.7672 151.357 93.884 151.043 93.9708C150.728 94.0594 150.465 94.1039 150.261 94.1039C149.495 94.1039 148.928 93.8974 148.577 93.49C148.221 93.079 148.04 92.3599 148.04 91.3543V83.5072H152ZM122.691 94.1042C121.255 94.1042 120.122 93.6278 119.324 92.6895C118.521 91.7464 118.114 90.4019 118.114 88.6936C118.114 86.9312 118.521 85.5518 119.324 84.5921C120.123 83.6386 121.245 83.1548 122.659 83.1548C124.032 83.1548 125.124 83.6169 125.906 84.5291C126.693 85.446 127.092 86.8144 127.092 88.5974C127.092 90.4023 126.717 91.7887 125.977 92.716C125.242 93.6366 124.137 94.1042 122.691 94.1042ZM122.868 79.9183C120.127 79.9183 117.95 80.7214 116.398 82.3053C114.847 83.8894 114.06 86.0815 114.06 88.8214C114.06 91.4237 114.828 93.5169 116.342 95.0418C117.857 96.5675 119.917 97.3402 122.467 97.3402C125.124 97.3402 127.257 96.526 128.809 94.9202C130.36 93.3158 131.146 91.1446 131.146 88.4687C131.146 85.8257 130.408 83.7169 128.953 82.202C127.497 80.6865 125.449 79.9183 122.868 79.9183ZM107.679 79.9182C105.815 79.9182 104.273 80.3951 103.094 81.3353C101.909 82.2811 101.308 83.5217 101.308 85.0228C101.308 85.803 101.438 86.4962 101.693 87.084C101.95 87.6739 102.348 88.193 102.876 88.6289C103.4 89.0612 104.209 89.5141 105.282 89.9747C106.183 90.3456 106.855 90.6596 107.283 90.9069C107.7 91.1491 107.996 91.3929 108.164 91.6301C108.326 91.8623 108.409 92.1799 108.409 92.5724C108.409 93.6889 107.573 94.2321 105.852 94.2321C105.214 94.2321 104.486 94.0991 103.688 93.8362C102.89 93.5738 102.144 93.1965 101.472 92.7127L101.308 92.5949V96.4054L101.368 96.4334C101.929 96.6919 102.634 96.9098 103.467 97.0815C104.297 97.2531 105.052 97.3406 105.708 97.3406C107.731 97.3406 109.36 96.8614 110.548 95.9156C111.745 94.9633 112.351 93.6935 112.351 92.1403C112.351 91.02 112.025 90.0591 111.381 89.2844C110.742 88.5157 109.634 87.8103 108.087 87.1866C106.854 86.692 106.065 86.2814 105.739 85.9663C105.425 85.6618 105.266 85.2312 105.266 84.686C105.266 84.2026 105.463 83.8155 105.867 83.5017C106.274 83.1865 106.84 83.0262 107.551 83.0262C108.211 83.0262 108.885 83.1304 109.556 83.3345C110.227 83.5386 110.816 83.812 111.307 84.1465L111.469 84.257V80.6423L111.407 80.6156C110.953 80.4211 110.355 80.2547 109.629 80.1197C108.905 79.986 108.249 79.9182 107.679 79.9182ZM90.9899 94.1042C89.5537 94.1042 88.4207 93.6278 87.6227 92.6895C86.8195 91.7464 86.4132 90.4023 86.4132 88.6936C86.4132 86.9312 86.8199 85.5518 87.6236 84.5921C88.4216 83.6386 89.5432 83.1548 90.9581 83.1548C92.33 83.1548 93.4224 83.6169 94.2051 84.5291C94.9917 85.446 95.3907 86.8144 95.3907 88.5974C95.3907 90.4023 95.0151 91.7887 94.275 92.716C93.5402 93.6366 92.4355 94.1042 90.9899 94.1042ZM91.1666 79.9183C88.4251 79.9183 86.2482 80.7214 84.6969 82.3053C83.1458 83.8894 82.3588 86.0815 82.3588 88.8214C82.3588 91.4248 83.127 93.5169 84.6412 95.0418C86.1554 96.5675 88.216 97.3402 90.7656 97.3402C93.4218 97.3402 95.556 96.526 97.1075 94.9202C98.6583 93.3158 99.4447 91.1446 99.4447 88.4687C99.4447 85.8257 98.707 83.7169 97.2515 82.202C95.7952 80.6865 93.7478 79.9183 91.1666 79.9183ZM76.3508 83.197V80.3188H72.441V96.9392H76.3508V88.4373C76.3508 86.9914 76.6785 85.8039 77.3252 84.9068C77.9638 84.0204 78.8149 83.5712 79.8538 83.5712C80.2059 83.5712 80.6012 83.6293 81.0293 83.7442C81.4531 83.8584 81.76 83.9823 81.9411 84.1127L82.1053 84.2318V80.2903L82.0419 80.2631C81.6778 80.1083 81.1628 80.0303 80.5111 80.0303C79.5287 80.0303 78.6494 80.3459 77.8963 80.9675C77.2353 81.5138 76.7574 82.2629 76.3922 83.197H76.3508ZM65.4396 79.9182C63.6461 79.9182 62.0462 80.303 60.6852 81.0611C59.3216 81.8209 58.2671 82.9059 57.5496 84.2855C56.8353 85.6618 56.4727 87.2694 56.4727 89.0621C56.4727 90.6324 56.8243 92.0736 57.5193 93.3436C58.2147 94.6158 59.199 95.6111 60.4449 96.3014C61.689 96.9909 63.127 97.3406 64.719 97.3406C66.577 97.3406 68.1633 96.969 69.4353 96.2365L69.4866 96.207V92.6252L69.3224 92.7451C68.7462 93.1647 68.1024 93.4997 67.4096 93.7411C66.7186 93.9822 66.0885 94.1041 65.5363 94.1041C64.0021 94.1041 62.7707 93.624 61.8767 92.6778C60.9807 91.7301 60.5265 90.3996 60.5265 88.7251C60.5265 87.0401 61.0002 85.6754 61.9339 84.6683C62.8645 83.6642 64.0984 83.1549 65.6007 83.1549C66.8859 83.1549 68.1381 83.5901 69.3228 84.4495L69.4866 84.5685V80.7945L69.4337 80.7647C68.9878 80.5152 68.3799 80.3091 67.6249 80.1528C66.8734 79.9969 66.1383 79.9182 65.4396 79.9182ZM53.78 80.3188H49.8703V96.9392H53.78V80.3188ZM51.865 73.2384C51.2216 73.2384 50.6604 73.4574 50.1993 73.8914C49.7363 74.3268 49.5013 74.8749 49.5013 75.5216C49.5013 76.1583 49.7335 76.6963 50.1919 77.12C50.6474 77.5425 51.2104 77.7567 51.865 77.7567C52.5194 77.7567 53.0846 77.5425 53.5456 77.1207C54.0098 76.6963 54.245 76.1583 54.245 75.5216C54.245 74.8975 54.0161 74.3549 53.5647 73.909C53.114 73.4639 52.542 73.2384 51.865 73.2384ZM42.1102 79.0926V96.9391H46.1002V73.7473H40.578L33.5588 90.9735L26.7471 73.7473H21V96.9391H24.7495V79.0908H24.8784L32.0713 96.9391H34.9009L41.9815 79.0926H42.1102Z" fill="#C6C6C6"/>
<path d="M82.9579 40.1449H64.5659V21.7529H82.9579V40.1449Z" fill="#C6C6C6"/>
<path d="M103.265 40.1449H84.8728V21.7529H103.265V40.1449Z" fill="#C6C6C6"/>
<path d="M82.9575 60.4594H64.5659V42.0674H82.9575V60.4594Z" fill="#C6C6C6"/>
<path d="M103.265 60.4594H84.8728V42.0674H103.265V60.4594Z" fill="#C6C6C6"/>
</svg>
