<svg width="97" height="22" viewBox="0 0 97 22" fill="none" xmlns="http://www.w3.org/2000/svg">
<path d="M4.568 18.013H15.443V21H0.392V18.274L10.89 3.542H0.392V0.554999H15.124V3.252L4.568 18.013ZM36.5357 6.819H40.0737L34.5057 21H31.3447L27.8647 11.865L24.4717 21H21.3397L15.7427 6.819H19.4547L23.0797 16.679L26.7047 6.819H29.3147L32.9397 16.737L36.5357 6.819ZM48.1244 6.471C50.1157 6.471 51.5947 6.95433 52.5614 7.921C53.5281 8.88767 54.0114 10.3763 54.0114 12.387V21H50.5604V18.825C50.2317 19.579 49.7097 20.1687 48.9944 20.594C48.2984 21.0193 47.4864 21.232 46.5584 21.232C45.6111 21.232 44.7507 21.0387 43.9774 20.652C43.2041 20.2653 42.5951 19.7337 42.1504 19.057C41.7057 18.3803 41.4834 17.6263 41.4834 16.795C41.4834 15.751 41.7444 14.9293 42.2664 14.33C42.8077 13.7307 43.6777 13.2957 44.8764 13.025C46.0751 12.7543 47.7281 12.619 49.8354 12.619H50.5604V11.952C50.5604 10.9853 50.3477 10.2893 49.9224 9.864C49.5164 9.43867 48.8301 9.226 47.8634 9.226C47.1094 9.226 46.3167 9.36133 45.4854 9.632C44.6734 9.88333 43.8711 10.241 43.0784 10.705L42.0634 8.211C42.8561 7.70833 43.8131 7.29267 44.9344 6.964C46.0557 6.63533 47.1191 6.471 48.1244 6.471ZM47.2834 18.622C48.2501 18.622 49.0331 18.303 49.6324 17.665C50.2511 17.0077 50.5604 16.1667 50.5604 15.142V14.533H50.0384C48.7431 14.533 47.7377 14.591 47.0224 14.707C46.3071 14.823 45.7947 15.026 45.4854 15.316C45.1761 15.606 45.0214 16.0023 45.0214 16.505C45.0214 17.1237 45.2341 17.636 45.6594 18.042C46.0847 18.4287 46.6261 18.622 47.2834 18.622ZM57.6955 21V0.554999H61.3205V21H57.6955ZM65.0588 21V0.554999H68.6838V21H65.0588ZM84.8631 14.562H75.2061C75.3221 15.8767 75.7184 16.853 76.3951 17.491C77.0718 18.129 78.0384 18.448 79.2951 18.448C80.8611 18.448 82.2918 17.9453 83.5871 16.94L84.6311 19.434C83.9738 19.9753 83.1424 20.4103 82.1371 20.739C81.1511 21.0677 80.1554 21.232 79.1501 21.232C76.8301 21.232 74.9934 20.5747 73.6401 19.26C72.3061 17.9453 71.6391 16.1473 71.6391 13.866C71.6391 12.416 71.9291 11.1303 72.5091 10.009C73.0891 8.88767 73.9011 8.01767 74.9451 7.399C76.0084 6.78033 77.2071 6.471 78.5411 6.471C80.4938 6.471 82.0308 7.09933 83.1521 8.356C84.2928 9.61267 84.8631 11.343 84.8631 13.547V14.562ZM78.6281 9.023C77.6614 9.023 76.8784 9.33233 76.2791 9.951C75.6991 10.5697 75.3414 11.459 75.2061 12.619H81.7601C81.7214 11.4397 81.4314 10.5503 80.8901 9.951C80.3488 9.33233 79.5948 9.023 78.6281 9.023ZM94.8801 18.506C95.3055 18.506 95.7501 18.477 96.2141 18.419L96.0401 21.116C95.4601 21.174 94.9285 21.203 94.4451 21.203C92.4538 21.203 90.9845 20.7487 90.0371 19.84C89.0898 18.912 88.6161 17.5393 88.6161 15.722V9.545H85.8901V6.819H88.6161V2.585H92.2411V6.819H95.9821V9.545H92.2411V15.664C92.2411 17.5587 93.1208 18.506 94.8801 18.506Z" fill="white"/>
</svg>
